                         <svg
                              xmlns="http://www.w3.org/2000/svg"
                              viewBox="0 0 150 150"
                              width="1em"
                              height="1em"
                              fill="none"
                         >
                              <path
                                   fill="currentColor"
                                   d="M150 75c0 41.421-33.579 75-75 75S0 116.421 0 75 33.579 0 75 0s75 33.579 75 75Z"
                              ></path>
                              <path
                                   fill="#D0ACF2"
                                   fill-rule="evenodd"
                                   d="M96.213 53.787c-12.496-12.497-32.758-12.497-45.254 0-3.906 3.905-10.237 3.905-14.143 0-3.905-3.906-3.905-10.237 0-14.142 20.308-20.308 53.232-20.308 73.539 0 20.308 20.307 20.308 53.231 0 73.539-3.905 3.905-10.236 3.905-14.142 0-3.905-3.906-3.905-10.237 0-14.142 12.497-12.497 12.497-32.758 0-45.255Z"
                                   clip-rule="evenodd"
                              ></path>
                              <path
                                   fill="#F7F7F5"
                                   stroke="currentColor"
                                   stroke-width="4"
                                   d="M96.921 112.432a9 9 0 0 0 12.728 0 8.999 8.999 0 0 0 0-12.728 9 9 0 0 0-12.728 12.728Z"
                              ></path>
                         </svg>