<svg xmlns="http://www.w3.org/2000/svg" width="569" height="569" viewBox="0 0 569 569" fill="none">
     <rect x="15.2314" y="13.3276" width="536.911" height="536.911" rx="69.7318" fill="#1F1F1F"/>
     <rect width="233" height="178" transform="translate(172 113)" fill="white" fill-opacity="0.01"/>
     <path fill-rule="evenodd" clip-rule="evenodd" d="M288.502 136.733C292.791 136.733 296.269 139.39 296.269 142.667V247.009L345.143 209.671C348.177 207.354 353.094 207.354 356.128 209.671C359.16 211.988 359.16 215.745 356.128 218.062L293.994 265.529C292.537 266.641 290.562 267.267 288.502 267.267C286.442 267.267 284.467 266.641 283.01 265.529L220.877 218.062C217.844 215.745 217.844 211.988 220.877 209.671C223.91 207.354 228.828 207.354 231.861 209.671L280.735 247.009V142.667C280.735 139.39 284.213 136.733 288.502 136.733Z" fill="#BFF164" stroke="#BFF164" stroke-width="12"/>
     <path fill-rule="evenodd" clip-rule="evenodd" d="M288.502 421.533C284.212 421.533 280.735 418.877 280.735 415.6L280.735 311.258L231.861 348.595C228.827 350.913 223.91 350.913 220.876 348.595C217.844 346.278 217.844 342.522 220.876 340.205L283.01 292.737C284.466 291.625 286.442 291 288.502 291C290.562 291 292.537 291.625 293.994 292.737L356.127 340.205C359.16 342.522 359.16 346.278 356.127 348.595C353.094 350.913 348.176 350.913 345.143 348.595L296.268 311.258L296.268 415.6C296.268 418.877 292.791 421.533 288.502 421.533Z" fill="#BFF164" stroke="#BFF164" stroke-width="12"/>
</svg>